<?xml version="1.0" encoding="UTF-8" standalone="no"?>
<!DOCTYPE svg PUBLIC "-//W3C//DTD SVG 1.1//EN"
 "http://www.w3.org/Graphics/SVG/1.1/DTD/svg11.dtd">
<!-- Generated by graphviz version 2.47.3 (20210619.1520)
 -->
<!-- Title: dependencies Pages: 1 -->
<svg width="666pt" height="247pt"
 viewBox="0.00 0.00 666.00 246.80" xmlns="http://www.w3.org/2000/svg" xmlns:xlink="http://www.w3.org/1999/xlink">
<g id="graph0" class="graph" transform="scale(1 1) rotate(0) translate(4 242.8)">
<title>dependencies</title>
<polygon fill="white" stroke="transparent" points="-4,4 -4,-242.8 662,-242.8 662,4 -4,4"/>
<text text-anchor="middle" x="329" y="-8.2" font-family="sans-serif" font-size="14.00">dependencies</text>
<g id="clust1" class="cluster">
<title>cluster_MutantCoreModule</title>
<polygon fill="none" stroke="black" stroke-dasharray="1,5" points="8,-32.8 8,-230.8 650,-230.8 650,-32.8 8,-32.8"/>
</g>
<g id="clust6" class="cluster">
<title>cluster_MutantCoreModule_providers</title>
<polygon fill="none" stroke="black" points="192,-40.8 192,-92.8 642,-92.8 642,-40.8 192,-40.8"/>
</g>
<g id="clust3" class="cluster">
<title>cluster_MutantCoreModule_imports</title>
<polygon fill="none" stroke="black" points="16,-40.8 16,-92.8 184,-92.8 184,-40.8 16,-40.8"/>
</g>
<g id="clust4" class="cluster">
<title>cluster_MutantCoreModule_exports</title>
<polygon fill="none" stroke="black" points="45,-170.8 45,-222.8 561,-222.8 561,-170.8 45,-170.8"/>
</g>
<!-- MutantDatabaseModule -->
<g id="node1" class="node">
<title>MutantDatabaseModule</title>
<polygon fill="#8dd3c7" stroke="black" points="175.79,-84.8 172.79,-88.8 151.79,-88.8 148.79,-84.8 24.21,-84.8 24.21,-48.8 175.79,-48.8 175.79,-84.8"/>
<text text-anchor="middle" x="100" y="-62.6" font-family="Times,serif" font-size="14.00">MutantDatabaseModule</text>
</g>
<!-- MutantCoreModule -->
<g id="node2" class="node">
<title>MutantCoreModule</title>
<polygon fill="#8dd3c7" stroke="black" points="368.7,-149.8 365.7,-153.8 344.7,-153.8 341.7,-149.8 241.3,-149.8 241.3,-113.8 368.7,-113.8 368.7,-149.8"/>
<text text-anchor="middle" x="305" y="-127.6" font-family="Times,serif" font-size="14.00">MutantCoreModule</text>
</g>
<!-- MutantDatabaseModule&#45;&gt;MutantCoreModule -->
<g id="edge1" class="edge">
<title>MutantDatabaseModule&#45;&gt;MutantCoreModule</title>
<path fill="none" stroke="black" d="M114.23,-84.82C114.23,-102.17 114.23,-125.8 114.23,-125.8 114.23,-125.8 231.21,-125.8 231.21,-125.8"/>
<polygon fill="black" stroke="black" points="231.21,-129.3 241.21,-125.8 231.21,-122.3 231.21,-129.3"/>
</g>
<!-- DnaMutantCoreService  -->
<g id="node3" class="node">
<title>DnaMutantCoreService </title>
<polygon fill="#fb8072" stroke="black" points="553.45,-214.8 400.55,-214.8 400.55,-178.8 553.45,-178.8 553.45,-214.8"/>
<text text-anchor="middle" x="477" y="-192.6" font-family="Times,serif" font-size="14.00">DnaMutantCoreService </text>
</g>
<!-- MutantCoreModule&#45;&gt;DnaMutantCoreService  -->
<g id="edge2" class="edge">
<title>MutantCoreModule&#45;&gt;DnaMutantCoreService </title>
<path fill="none" stroke="black" stroke-dasharray="5,2" d="M368.71,-137.8C388.68,-137.8 405.6,-137.8 405.6,-137.8 405.6,-137.8 405.6,-168.78 405.6,-168.78"/>
<polygon fill="black" stroke="black" points="402.1,-168.78 405.6,-178.78 409.1,-168.78 402.1,-168.78"/>
</g>
<!-- MutantDatabaseModule  -->
<g id="node4" class="node">
<title>MutantDatabaseModule </title>
<polygon fill="#fb8072" stroke="black" points="382.29,-214.8 227.71,-214.8 227.71,-178.8 382.29,-178.8 382.29,-214.8"/>
<text text-anchor="middle" x="305" y="-192.6" font-family="Times,serif" font-size="14.00">MutantDatabaseModule </text>
</g>
<!-- MutantCoreModule&#45;&gt;MutantDatabaseModule  -->
<g id="edge3" class="edge">
<title>MutantCoreModule&#45;&gt;MutantDatabaseModule </title>
<path fill="none" stroke="black" stroke-dasharray="5,2" d="M305,-149.91C305,-149.91 305,-168.79 305,-168.79"/>
<polygon fill="black" stroke="black" points="301.5,-168.79 305,-178.79 308.5,-168.79 301.5,-168.79"/>
</g>
<!-- StatsMutantCoreService  -->
<g id="node5" class="node">
<title>StatsMutantCoreService </title>
<polygon fill="#fb8072" stroke="black" points="209.35,-214.8 52.65,-214.8 52.65,-178.8 209.35,-178.8 209.35,-214.8"/>
<text text-anchor="middle" x="131" y="-192.6" font-family="Times,serif" font-size="14.00">StatsMutantCoreService </text>
</g>
<!-- MutantCoreModule&#45;&gt;StatsMutantCoreService  -->
<g id="edge4" class="edge">
<title>MutantCoreModule&#45;&gt;StatsMutantCoreService </title>
<path fill="none" stroke="black" stroke-dasharray="5,2" d="M241.27,-137.8C221.3,-137.8 204.37,-137.8 204.37,-137.8 204.37,-137.8 204.37,-168.78 204.37,-168.78"/>
<polygon fill="black" stroke="black" points="200.87,-168.78 204.37,-178.78 207.87,-168.78 200.87,-168.78"/>
</g>
<!-- DnaMutantCoreService -->
<g id="node6" class="node">
<title>DnaMutantCoreService</title>
<ellipse fill="#fdb462" stroke="black" cx="531" cy="-66.8" rx="102.99" ry="18"/>
<text text-anchor="middle" x="531" y="-62.6" font-family="Times,serif" font-size="14.00">DnaMutantCoreService</text>
</g>
<!-- DnaMutantCoreService&#45;&gt;MutantCoreModule -->
<g id="edge5" class="edge">
<title>DnaMutantCoreService&#45;&gt;MutantCoreModule</title>
<path fill="none" stroke="black" d="M490.74,-83.55C490.74,-100.99 490.74,-125.8 490.74,-125.8 490.74,-125.8 378.66,-125.8 378.66,-125.8"/>
<polygon fill="black" stroke="black" points="378.66,-122.3 368.66,-125.8 378.66,-129.3 378.66,-122.3"/>
</g>
<!-- StatsMutantCoreService -->
<g id="node7" class="node">
<title>StatsMutantCoreService</title>
<ellipse fill="#fdb462" stroke="black" cx="305" cy="-66.8" rx="105.37" ry="18"/>
<text text-anchor="middle" x="305" y="-62.6" font-family="Times,serif" font-size="14.00">StatsMutantCoreService</text>
</g>
<!-- StatsMutantCoreService&#45;&gt;MutantCoreModule -->
<g id="edge6" class="edge">
<title>StatsMutantCoreService&#45;&gt;MutantCoreModule</title>
<path fill="none" stroke="black" d="M305,-84.91C305,-84.91 305,-103.79 305,-103.79"/>
<polygon fill="black" stroke="black" points="301.5,-103.79 305,-113.79 308.5,-103.79 301.5,-103.79"/>
</g>
</g>
</svg>
