<?xml version="1.0" encoding="UTF-8" standalone="no"?>
<!DOCTYPE svg PUBLIC "-//W3C//DTD SVG 1.1//EN"
 "http://www.w3.org/Graphics/SVG/1.1/DTD/svg11.dtd">
<!-- Generated by graphviz version 2.47.3 (20210619.1520)
 -->
<!-- Title: dependencies Pages: 1 -->
<svg width="440pt" height="247pt"
 viewBox="0.00 0.00 440.00 246.80" xmlns="http://www.w3.org/2000/svg" xmlns:xlink="http://www.w3.org/1999/xlink">
<g id="graph0" class="graph" transform="scale(1 1) rotate(0) translate(4 242.8)">
<title>dependencies</title>
<polygon fill="white" stroke="transparent" points="-4,4 -4,-242.8 436,-242.8 436,4 -4,4"/>
<text text-anchor="middle" x="216" y="-8.2" font-family="sans-serif" font-size="14.00">dependencies</text>
<g id="clust1" class="cluster">
<title>cluster_MutantDatabaseModule</title>
<polygon fill="none" stroke="black" stroke-dasharray="1,5" points="8,-32.8 8,-230.8 424,-230.8 424,-32.8 8,-32.8"/>
</g>
<g id="clust6" class="cluster">
<title>cluster_MutantDatabaseModule_providers</title>
<polygon fill="none" stroke="black" points="144,-40.8 144,-92.8 416,-92.8 416,-40.8 144,-40.8"/>
</g>
<g id="clust3" class="cluster">
<title>cluster_MutantDatabaseModule_imports</title>
<polygon fill="none" stroke="black" points="16,-40.8 16,-92.8 136,-92.8 136,-40.8 16,-40.8"/>
</g>
<g id="clust4" class="cluster">
<title>cluster_MutantDatabaseModule_exports</title>
<polygon fill="none" stroke="black" points="106,-170.8 106,-222.8 318,-222.8 318,-170.8 106,-170.8"/>
</g>
<!-- SchemaModule -->
<g id="node1" class="node">
<title>SchemaModule</title>
<polygon fill="#8dd3c7" stroke="black" points="127.87,-84.8 124.87,-88.8 103.87,-88.8 100.87,-84.8 24.13,-84.8 24.13,-48.8 127.87,-48.8 127.87,-84.8"/>
<text text-anchor="middle" x="76" y="-62.6" font-family="Times,serif" font-size="14.00">SchemaModule</text>
</g>
<!-- MutantDatabaseModule -->
<g id="node2" class="node">
<title>MutantDatabaseModule</title>
<polygon fill="#8dd3c7" stroke="black" points="290.79,-149.8 287.79,-153.8 266.79,-153.8 263.79,-149.8 139.21,-149.8 139.21,-113.8 290.79,-113.8 290.79,-149.8"/>
<text text-anchor="middle" x="215" y="-127.6" font-family="Times,serif" font-size="14.00">MutantDatabaseModule</text>
</g>
<!-- SchemaModule&#45;&gt;MutantDatabaseModule -->
<g id="edge1" class="edge">
<title>SchemaModule&#45;&gt;MutantDatabaseModule</title>
<path fill="none" stroke="black" d="M127.91,-66.8C138.21,-66.8 145.91,-66.8 145.91,-66.8 145.91,-66.8 145.91,-103.69 145.91,-103.69"/>
<polygon fill="black" stroke="black" points="142.41,-103.69 145.91,-113.69 149.41,-103.69 142.41,-103.69"/>
</g>
<!-- DnaService  -->
<g id="node3" class="node">
<title>DnaService </title>
<polygon fill="#fb8072" stroke="black" points="310.3,-214.8 225.7,-214.8 225.7,-178.8 310.3,-178.8 310.3,-214.8"/>
<text text-anchor="middle" x="268" y="-192.6" font-family="Times,serif" font-size="14.00">DnaService </text>
</g>
<!-- MutantDatabaseModule&#45;&gt;DnaService  -->
<g id="edge2" class="edge">
<title>MutantDatabaseModule&#45;&gt;DnaService </title>
<path fill="none" stroke="black" stroke-dasharray="5,2" d="M258.12,-149.91C258.12,-149.91 258.12,-168.79 258.12,-168.79"/>
<polygon fill="black" stroke="black" points="254.62,-168.79 258.12,-178.79 261.62,-168.79 254.62,-168.79"/>
</g>
<!-- StatsServices  -->
<g id="node4" class="node">
<title>StatsServices </title>
<polygon fill="#fb8072" stroke="black" points="208.15,-214.8 113.85,-214.8 113.85,-178.8 208.15,-178.8 208.15,-214.8"/>
<text text-anchor="middle" x="161" y="-192.6" font-family="Times,serif" font-size="14.00">StatsServices </text>
</g>
<!-- MutantDatabaseModule&#45;&gt;StatsServices  -->
<g id="edge3" class="edge">
<title>MutantDatabaseModule&#45;&gt;StatsServices </title>
<path fill="none" stroke="black" stroke-dasharray="5,2" d="M173.71,-149.91C173.71,-149.91 173.71,-168.79 173.71,-168.79"/>
<polygon fill="black" stroke="black" points="170.21,-168.79 173.71,-178.79 177.21,-168.79 170.21,-168.79"/>
</g>
<!-- DnaService -->
<g id="node5" class="node">
<title>DnaService</title>
<ellipse fill="#fdb462" stroke="black" cx="352" cy="-66.8" rx="56.16" ry="18"/>
<text text-anchor="middle" x="352" y="-62.6" font-family="Times,serif" font-size="14.00">DnaService</text>
</g>
<!-- DnaService&#45;&gt;MutantDatabaseModule -->
<g id="edge4" class="edge">
<title>DnaService&#45;&gt;MutantDatabaseModule</title>
<path fill="none" stroke="black" d="M295.92,-66.8C288.88,-66.8 284.09,-66.8 284.09,-66.8 284.09,-66.8 284.09,-103.69 284.09,-103.69"/>
<polygon fill="black" stroke="black" points="280.59,-103.69 284.09,-113.69 287.59,-103.69 280.59,-103.69"/>
</g>
<!-- StatsServices -->
<g id="node6" class="node">
<title>StatsServices</title>
<ellipse fill="#fdb462" stroke="black" cx="215" cy="-66.8" rx="62.55" ry="18"/>
<text text-anchor="middle" x="215" y="-62.6" font-family="Times,serif" font-size="14.00">StatsServices</text>
</g>
<!-- StatsServices&#45;&gt;MutantDatabaseModule -->
<g id="edge5" class="edge">
<title>StatsServices&#45;&gt;MutantDatabaseModule</title>
<path fill="none" stroke="black" d="M215,-84.91C215,-84.91 215,-103.79 215,-103.79"/>
<polygon fill="black" stroke="black" points="211.5,-103.79 215,-113.79 218.5,-103.79 211.5,-103.79"/>
</g>
</g>
</svg>
