<?xml version="1.0" encoding="UTF-8" standalone="no"?>
<!DOCTYPE svg PUBLIC "-//W3C//DTD SVG 1.1//EN"
 "http://www.w3.org/Graphics/SVG/1.1/DTD/svg11.dtd">
<!-- Generated by graphviz version 2.47.3 (20210619.1520)
 -->
<!-- Title: dependencies Pages: 1 -->
<svg width="184pt" height="174pt"
 viewBox="0.00 0.00 184.00 173.80" xmlns="http://www.w3.org/2000/svg" xmlns:xlink="http://www.w3.org/1999/xlink">
<g id="graph0" class="graph" transform="scale(1 1) rotate(0) translate(4 169.8)">
<title>dependencies</title>
<polygon fill="white" stroke="transparent" points="-4,4 -4,-169.8 180,-169.8 180,4 -4,4"/>
<text text-anchor="middle" x="88" y="-8.2" font-family="sans-serif" font-size="14.00">dependencies</text>
<g id="clust1" class="cluster">
<title>cluster_ControllersModule</title>
<polygon fill="none" stroke="black" stroke-dasharray="1,5" points="8,-32.8 8,-157.8 168,-157.8 168,-32.8 8,-32.8"/>
</g>
<g id="clust3" class="cluster">
<title>cluster_ControllersModule_imports</title>
<polygon fill="none" stroke="black" points="16,-40.8 16,-92.8 160,-92.8 160,-40.8 16,-40.8"/>
</g>
<!-- MutantCoreModule -->
<g id="node1" class="node">
<title>MutantCoreModule</title>
<polygon fill="#8dd3c7" stroke="black" points="151.7,-84.8 148.7,-88.8 127.7,-88.8 124.7,-84.8 24.3,-84.8 24.3,-48.8 151.7,-48.8 151.7,-84.8"/>
<text text-anchor="middle" x="88" y="-62.6" font-family="Times,serif" font-size="14.00">MutantCoreModule</text>
</g>
<!-- ControllersModule -->
<g id="node2" class="node">
<title>ControllersModule</title>
<polygon fill="#8dd3c7" stroke="black" points="149.04,-149.8 146.04,-153.8 125.04,-153.8 122.04,-149.8 26.96,-149.8 26.96,-113.8 149.04,-113.8 149.04,-149.8"/>
<text text-anchor="middle" x="88" y="-127.6" font-family="Times,serif" font-size="14.00">ControllersModule</text>
</g>
<!-- MutantCoreModule&#45;&gt;ControllersModule -->
<g id="edge1" class="edge">
<title>MutantCoreModule&#45;&gt;ControllersModule</title>
<path fill="none" stroke="black" d="M88,-84.91C88,-84.91 88,-103.79 88,-103.79"/>
<polygon fill="black" stroke="black" points="84.5,-103.79 88,-113.79 91.5,-103.79 84.5,-103.79"/>
</g>
</g>
</svg>
