<?xml version="1.0" encoding="UTF-8" standalone="no"?>
<!DOCTYPE svg PUBLIC "-//W3C//DTD SVG 1.1//EN"
 "http://www.w3.org/Graphics/SVG/1.1/DTD/svg11.dtd">
<!-- Generated by graphviz version 2.47.3 (20210619.1520)
 -->
<!-- Title: dependencies Pages: 1 -->
<svg width="1793pt" height="261pt"
 viewBox="0.00 0.00 1793.00 260.80" xmlns="http://www.w3.org/2000/svg" xmlns:xlink="http://www.w3.org/1999/xlink">
<g id="graph0" class="graph" transform="scale(1 1) rotate(0) translate(4 256.8)">
<title>dependencies</title>
<polygon fill="white" stroke="transparent" points="-4,4 -4,-256.8 1789,-256.8 1789,4 -4,4"/>
<text text-anchor="middle" x="892.5" y="-8.2" font-family="sans-serif" font-size="14.00">dependencies</text>
<g id="clust7" class="cluster">
<title>cluster_ControllersModule</title>
<polygon fill="none" stroke="black" stroke-dasharray="1,5" points="8,-32.8 8,-168.8 168,-168.8 168,-32.8 8,-32.8"/>
</g>
<g id="clust9" class="cluster">
<title>cluster_ControllersModule_imports</title>
<polygon fill="none" stroke="black" points="16,-40.8 16,-92.8 160,-92.8 160,-40.8 16,-40.8"/>
</g>
<g id="clust13" class="cluster">
<title>cluster_MutantCoreModule</title>
<polygon fill="none" stroke="black" stroke-dasharray="1,5" points="176,-108.8 176,-176.8 1342,-176.8 1342,-108.8 176,-108.8"/>
</g>
<g id="clust15" class="cluster">
<title>cluster_MutantCoreModule_imports</title>
<polygon fill="none" stroke="black" points="1166,-116.8 1166,-168.8 1334,-168.8 1334,-116.8 1166,-116.8"/>
</g>
<g id="clust16" class="cluster">
<title>cluster_MutantCoreModule_exports</title>
<polygon fill="none" stroke="black" points="642,-116.8 642,-168.8 1158,-168.8 1158,-116.8 642,-116.8"/>
</g>
<g id="clust18" class="cluster">
<title>cluster_MutantCoreModule_providers</title>
<polygon fill="none" stroke="black" points="184,-116.8 184,-168.8 634,-168.8 634,-116.8 184,-116.8"/>
</g>
<g id="clust19" class="cluster">
<title>cluster_MutantDatabaseModule</title>
<polygon fill="none" stroke="black" stroke-dasharray="1,5" points="907,-32.8 907,-100.8 1543,-100.8 1543,-32.8 907,-32.8"/>
</g>
<g id="clust21" class="cluster">
<title>cluster_MutantDatabaseModule_imports</title>
<polygon fill="none" stroke="black" points="1415,-40.8 1415,-92.8 1535,-92.8 1535,-40.8 1415,-40.8"/>
</g>
<g id="clust22" class="cluster">
<title>cluster_MutantDatabaseModule_exports</title>
<polygon fill="none" stroke="black" points="1195,-40.8 1195,-92.8 1407,-92.8 1407,-40.8 1195,-40.8"/>
</g>
<g id="clust24" class="cluster">
<title>cluster_MutantDatabaseModule_providers</title>
<polygon fill="none" stroke="black" points="915,-40.8 915,-92.8 1187,-92.8 1187,-40.8 915,-40.8"/>
</g>
<g id="clust25" class="cluster">
<title>cluster_MutantEntitiesModule</title>
<polygon fill="none" stroke="black" stroke-dasharray="1,5" points="1551,-32.8 1551,-244.8 1777,-244.8 1777,-32.8 1551,-32.8"/>
</g>
<g id="clust28" class="cluster">
<title>cluster_MutantEntitiesModule_exports</title>
<polygon fill="none" stroke="black" points="1584,-184.8 1584,-236.8 1744,-236.8 1744,-184.8 1584,-184.8"/>
</g>
<g id="clust30" class="cluster">
<title>cluster_MutantEntitiesModule_providers</title>
<polygon fill="none" stroke="black" points="1559,-40.8 1559,-92.8 1769,-92.8 1769,-40.8 1559,-40.8"/>
</g>
<!-- MutantCoreModule -->
<g id="node1" class="node">
<title>MutantCoreModule</title>
<polygon fill="#8dd3c7" stroke="black" points="151.7,-84.8 148.7,-88.8 127.7,-88.8 124.7,-84.8 24.3,-84.8 24.3,-48.8 151.7,-48.8 151.7,-84.8"/>
<text text-anchor="middle" x="88" y="-62.6" font-family="Times,serif" font-size="14.00">MutantCoreModule</text>
</g>
<!-- ControllersModule -->
<g id="node2" class="node">
<title>ControllersModule</title>
<polygon fill="#8dd3c7" stroke="black" points="149.04,-160.8 146.04,-164.8 125.04,-164.8 122.04,-160.8 26.96,-160.8 26.96,-124.8 149.04,-124.8 149.04,-160.8"/>
<text text-anchor="middle" x="88" y="-138.6" font-family="Times,serif" font-size="14.00">ControllersModule</text>
</g>
<!-- MutantCoreModule&#45;&gt;ControllersModule -->
<g id="edge1" class="edge">
<title>MutantCoreModule&#45;&gt;ControllersModule</title>
<path fill="none" stroke="black" d="M57.37,-84.81C57.37,-84.81 57.37,-114.65 57.37,-114.65"/>
<polygon fill="black" stroke="black" points="53.87,-114.65 57.37,-124.65 60.87,-114.65 53.87,-114.65"/>
</g>
<!-- DnaMutantCoreService  -->
<g id="node4" class="node">
<title>DnaMutantCoreService </title>
<polygon fill="#fb8072" stroke="black" points="1150.45,-160.8 997.55,-160.8 997.55,-124.8 1150.45,-124.8 1150.45,-160.8"/>
<text text-anchor="middle" x="1074" y="-138.6" font-family="Times,serif" font-size="14.00">DnaMutantCoreService </text>
</g>
<!-- MutantCoreModule&#45;&gt;DnaMutantCoreService  -->
<g id="edge3" class="edge">
<title>MutantCoreModule&#45;&gt;DnaMutantCoreService </title>
<path fill="none" stroke="black" stroke-dasharray="5,2" d="M118.63,-84.95C118.63,-98.54 118.63,-114.8 118.63,-114.8 118.63,-114.8 1014.69,-114.8 1014.69,-114.8 1014.69,-114.8 1014.69,-115.78 1014.69,-115.78"/>
<polygon fill="black" stroke="black" points="1011.19,-114.59 1014.69,-124.59 1018.19,-114.59 1011.19,-114.59"/>
</g>
<!-- MutantDatabaseModule  -->
<g id="node5" class="node">
<title>MutantDatabaseModule </title>
<polygon fill="#fb8072" stroke="black" points="979.29,-160.8 824.71,-160.8 824.71,-124.8 979.29,-124.8 979.29,-160.8"/>
<text text-anchor="middle" x="902" y="-138.6" font-family="Times,serif" font-size="14.00">MutantDatabaseModule </text>
</g>
<!-- MutantCoreModule&#45;&gt;MutantDatabaseModule  -->
<g id="edge4" class="edge">
<title>MutantCoreModule&#45;&gt;MutantDatabaseModule </title>
<path fill="none" stroke="black" stroke-dasharray="5,2" d="M151.66,-56.8C338.79,-56.8 874.04,-56.8 874.04,-56.8 874.04,-56.8 874.04,-114.56 874.04,-114.56"/>
<polygon fill="black" stroke="black" points="870.54,-114.56 874.04,-124.56 877.54,-114.56 870.54,-114.56"/>
</g>
<!-- StatsMutantCoreService  -->
<g id="node6" class="node">
<title>StatsMutantCoreService </title>
<polygon fill="#fb8072" stroke="black" points="806.35,-160.8 649.65,-160.8 649.65,-124.8 806.35,-124.8 806.35,-160.8"/>
<text text-anchor="middle" x="728" y="-138.6" font-family="Times,serif" font-size="14.00">StatsMutantCoreService </text>
</g>
<!-- MutantCoreModule&#45;&gt;StatsMutantCoreService  -->
<g id="edge5" class="edge">
<title>MutantCoreModule&#45;&gt;StatsMutantCoreService </title>
<path fill="none" stroke="black" stroke-dasharray="5,2" d="M151.71,-63.8C313.59,-63.8 728,-63.8 728,-63.8 728,-63.8 728,-114.48 728,-114.48"/>
<polygon fill="black" stroke="black" points="724.5,-114.48 728,-124.48 731.5,-114.48 724.5,-114.48"/>
</g>
<!-- MutantDatabaseModule -->
<g id="node3" class="node">
<title>MutantDatabaseModule</title>
<polygon fill="#8dd3c7" stroke="black" points="1325.79,-160.8 1322.79,-164.8 1301.79,-164.8 1298.79,-160.8 1174.21,-160.8 1174.21,-124.8 1325.79,-124.8 1325.79,-160.8"/>
<text text-anchor="middle" x="1250" y="-138.6" font-family="Times,serif" font-size="14.00">MutantDatabaseModule</text>
</g>
<!-- MutantDatabaseModule&#45;&gt;MutantCoreModule -->
<g id="edge2" class="edge">
<title>MutantDatabaseModule&#45;&gt;MutantCoreModule</title>
<path fill="none" stroke="black" d="M1196.97,-124.69C1196.97,-114.9 1196.97,-104.8 1196.97,-104.8 1196.97,-104.8 88,-104.8 88,-104.8 88,-104.8 88,-94.91 88,-94.91"/>
<polygon fill="black" stroke="black" points="91.5,-94.91 88,-84.91 84.5,-94.91 91.5,-94.91"/>
</g>
<!-- DnaService  -->
<g id="node10" class="node">
<title>DnaService </title>
<polygon fill="#fb8072" stroke="black" points="1399.3,-84.8 1314.7,-84.8 1314.7,-48.8 1399.3,-48.8 1399.3,-84.8"/>
<text text-anchor="middle" x="1357" y="-62.6" font-family="Times,serif" font-size="14.00">DnaService </text>
</g>
<!-- MutantDatabaseModule&#45;&gt;DnaService  -->
<g id="edge9" class="edge">
<title>MutantDatabaseModule&#45;&gt;DnaService </title>
<path fill="none" stroke="black" stroke-dasharray="5,2" d="M1320.12,-124.79C1320.12,-124.79 1320.12,-94.95 1320.12,-94.95"/>
<polygon fill="black" stroke="black" points="1323.62,-94.95 1320.12,-84.95 1316.62,-94.95 1323.62,-94.95"/>
</g>
<!-- StatsServices  -->
<g id="node11" class="node">
<title>StatsServices </title>
<polygon fill="#fb8072" stroke="black" points="1297.15,-84.8 1202.85,-84.8 1202.85,-48.8 1297.15,-48.8 1297.15,-84.8"/>
<text text-anchor="middle" x="1250" y="-62.6" font-family="Times,serif" font-size="14.00">StatsServices </text>
</g>
<!-- MutantDatabaseModule&#45;&gt;StatsServices  -->
<g id="edge10" class="edge">
<title>MutantDatabaseModule&#45;&gt;StatsServices </title>
<path fill="none" stroke="black" stroke-dasharray="5,2" d="M1250,-124.79C1250,-124.79 1250,-94.95 1250,-94.95"/>
<polygon fill="black" stroke="black" points="1253.5,-94.95 1250,-84.95 1246.5,-94.95 1253.5,-94.95"/>
</g>
<!-- DnaMutantCoreService -->
<g id="node7" class="node">
<title>DnaMutantCoreService</title>
<ellipse fill="#fdb462" stroke="black" cx="523" cy="-142.8" rx="102.99" ry="18"/>
<text text-anchor="middle" x="523" y="-138.6" font-family="Times,serif" font-size="14.00">DnaMutantCoreService</text>
</g>
<!-- DnaMutantCoreService&#45;&gt;MutantCoreModule -->
<g id="edge6" class="edge">
<title>DnaMutantCoreService&#45;&gt;MutantCoreModule</title>
<path fill="none" stroke="black" d="M523,-124.63C523,-103.3 523,-70.8 523,-70.8 523,-70.8 161.72,-70.8 161.72,-70.8"/>
<polygon fill="black" stroke="black" points="161.72,-67.3 151.72,-70.8 161.72,-74.3 161.72,-67.3"/>
</g>
<!-- StatsMutantCoreService -->
<g id="node8" class="node">
<title>StatsMutantCoreService</title>
<ellipse fill="#fdb462" stroke="black" cx="297" cy="-142.8" rx="105.37" ry="18"/>
<text text-anchor="middle" x="297" y="-138.6" font-family="Times,serif" font-size="14.00">StatsMutantCoreService</text>
</g>
<!-- StatsMutantCoreService&#45;&gt;MutantCoreModule -->
<g id="edge7" class="edge">
<title>StatsMutantCoreService&#45;&gt;MutantCoreModule</title>
<path fill="none" stroke="black" d="M297,-124.69C297,-105.46 297,-77.8 297,-77.8 297,-77.8 161.84,-77.8 161.84,-77.8"/>
<polygon fill="black" stroke="black" points="161.84,-74.3 151.84,-77.8 161.84,-81.3 161.84,-74.3"/>
</g>
<!-- SchemaModule -->
<g id="node9" class="node">
<title>SchemaModule</title>
<polygon fill="#8dd3c7" stroke="black" points="1526.87,-84.8 1523.87,-88.8 1502.87,-88.8 1499.87,-84.8 1423.13,-84.8 1423.13,-48.8 1526.87,-48.8 1526.87,-84.8"/>
<text text-anchor="middle" x="1475" y="-62.6" font-family="Times,serif" font-size="14.00">SchemaModule</text>
</g>
<!-- SchemaModule&#45;&gt;MutantDatabaseModule -->
<g id="edge8" class="edge">
<title>SchemaModule&#45;&gt;MutantDatabaseModule</title>
<path fill="none" stroke="black" d="M1475,-84.81C1475,-107.29 1475,-142.8 1475,-142.8 1475,-142.8 1335.86,-142.8 1335.86,-142.8"/>
<polygon fill="black" stroke="black" points="1335.86,-139.3 1325.86,-142.8 1335.86,-146.3 1335.86,-139.3"/>
</g>
<!-- DnaService -->
<g id="node12" class="node">
<title>DnaService</title>
<ellipse fill="#fdb462" stroke="black" cx="1123" cy="-66.8" rx="56.16" ry="18"/>
<text text-anchor="middle" x="1123" y="-62.6" font-family="Times,serif" font-size="14.00">DnaService</text>
</g>
<!-- DnaService&#45;&gt;MutantDatabaseModule -->
<g id="edge11" class="edge">
<title>DnaService&#45;&gt;MutantDatabaseModule</title>
<path fill="none" stroke="black" d="M1179.16,-66.8C1186.2,-66.8 1191,-66.8 1191,-66.8 1191,-66.8 1191,-114.79 1191,-114.79"/>
<polygon fill="black" stroke="black" points="1187.5,-114.79 1191,-124.79 1194.5,-114.79 1187.5,-114.79"/>
</g>
<!-- StatsServices -->
<g id="node13" class="node">
<title>StatsServices</title>
<ellipse fill="#fdb462" stroke="black" cx="986" cy="-66.8" rx="62.55" ry="18"/>
<text text-anchor="middle" x="986" y="-62.6" font-family="Times,serif" font-size="14.00">StatsServices</text>
</g>
<!-- StatsServices&#45;&gt;MutantDatabaseModule -->
<g id="edge12" class="edge">
<title>StatsServices&#45;&gt;MutantDatabaseModule</title>
<path fill="none" stroke="black" d="M1031.61,-79.16C1031.61,-86.66 1031.61,-94.8 1031.61,-94.8 1031.61,-94.8 1185.04,-94.8 1185.04,-94.8 1185.04,-94.8 1185.04,-114.65 1185.04,-114.65"/>
<polygon fill="black" stroke="black" points="1181.54,-114.65 1185.04,-124.65 1188.54,-114.65 1181.54,-114.65"/>
</g>
<!-- MutantEntitiesService  -->
<g id="node14" class="node">
<title>MutantEntitiesService </title>
<polygon fill="#fb8072" stroke="black" points="1736.19,-228.8 1591.81,-228.8 1591.81,-192.8 1736.19,-192.8 1736.19,-228.8"/>
<text text-anchor="middle" x="1664" y="-206.6" font-family="Times,serif" font-size="14.00">MutantEntitiesService </text>
</g>
<!-- MutantEntitiesModule -->
<g id="node15" class="node">
<title>MutantEntitiesModule</title>
<polygon fill="#8dd3c7" stroke="black" points="1735.26,-160.8 1732.26,-164.8 1711.26,-164.8 1708.26,-160.8 1592.74,-160.8 1592.74,-124.8 1735.26,-124.8 1735.26,-160.8"/>
<text text-anchor="middle" x="1664" y="-138.6" font-family="Times,serif" font-size="14.00">MutantEntitiesModule</text>
</g>
<!-- MutantEntitiesModule&#45;&gt;MutantEntitiesService  -->
<g id="edge13" class="edge">
<title>MutantEntitiesModule&#45;&gt;MutantEntitiesService </title>
<path fill="none" stroke="black" stroke-dasharray="5,2" d="M1664,-161.02C1664,-161.02 1664,-182.53 1664,-182.53"/>
<polygon fill="black" stroke="black" points="1660.5,-182.53 1664,-192.53 1667.5,-182.53 1660.5,-182.53"/>
</g>
<!-- MutantEntitiesService -->
<g id="node16" class="node">
<title>MutantEntitiesService</title>
<ellipse fill="#fdb462" stroke="black" cx="1664" cy="-66.8" rx="97.28" ry="18"/>
<text text-anchor="middle" x="1664" y="-62.6" font-family="Times,serif" font-size="14.00">MutantEntitiesService</text>
</g>
<!-- MutantEntitiesService&#45;&gt;MutantEntitiesModule -->
<g id="edge14" class="edge">
<title>MutantEntitiesService&#45;&gt;MutantEntitiesModule</title>
<path fill="none" stroke="black" d="M1664,-84.81C1664,-84.81 1664,-114.65 1664,-114.65"/>
<polygon fill="black" stroke="black" points="1660.5,-114.65 1664,-124.65 1667.5,-114.65 1660.5,-114.65"/>
</g>
</g>
</svg>
